<?xml version="1.0" encoding="UTF-8" standalone="no"?>
<svg width="26" height="26" viewBox="0 0 256 256" fill="currentColor" xmlns="http://www.w3.org/2000/svg">
 <g xmlns="http://www.w3.org/2000/svg"><g><g>
 <path fill="#1b2031" d="M125.2,19.2l-2.4,9.2l-4.4,0.5C95,31.5,74.5,41.3,57.8,57.8c-16.2,16.2-25.7,35.6-28.6,58.5l-0.8,6.5l-8.4,2.2c-4.6,1.2-8.8,2.2-9.2,2.2c-0.5,0-0.9,0.3-0.9,0.7c0,0.4,0.4,0.7,0.9,0.7c0.4,0,4.6,1,9.2,2.2l8.4,2.2l0.8,6.5c2.9,22.9,12.4,42.3,28.6,58.5c16.2,16.2,35.6,25.7,58.5,28.6l6.5,0.8l2.2,8.4c1.2,4.6,2.2,8.8,2.2,9.2c0,0.5,0.4,0.9,0.7,0.9c0.4,0,0.7-0.4,0.7-0.9c0-0.4,1-4.6,2.2-9.2l2.2-8.4l4.1-0.4c23.8-2.6,44.3-12.3,60.9-28.9c16.6-16.7,26.3-37.1,28.9-60.9l0.4-4.1l8.4-2.2c4.6-1.2,8.8-2.2,9.2-2.2c0.5,0,0.9-0.4,0.9-0.7c0-0.4-0.4-0.7-0.9-0.7c-0.4,0-4.6-1-9.2-2.2l-8.4-2.2l-0.8-6.5c-2.9-22.9-12.4-42.3-28.6-58.5c-16.2-16.2-35.6-25.7-58.5-28.6l-6.5-0.8l-2.2-8.4c-1.2-4.6-2.2-8.8-2.2-9.2c0-0.5-0.2-0.9-0.6-0.9C127.9,10,126.6,14.1,125.2,19.2z M143.6,45.5c29.3,5.2,55.1,28,64.4,56.8c5.2,16.2,5.2,35.8,0.1,51.5c-8.4,25.5-29,46.1-54.3,54.2c-17.2,5.5-37.1,5.1-54.4-0.9c-22.2-7.9-41.5-26.9-49.9-49.3c-3.9-10.3-5.2-17.8-5.2-29.8c0-20.6,5.9-37.2,18.9-53.3C82.4,51,112.6,40,143.6,45.5z"/>
 <path fill="#1b2031" d="M120.5,92.5l-7.8,35.2l7,35c3.9,19.2,7.3,35.3,7.5,35.6c0.3,0.3,4-15.4,8.3-34.9l7.8-35.3l-7.1-34.9c-3.9-19.2-7.2-35.1-7.5-35.4C128.5,57.4,124.8,73.1,120.5,92.5z M133,105.5c2.4,11.8,4.3,21.7,4.3,22s-4.2,0.6-9.4,0.6c-8.6,0-9.4-0.1-9.1-1.3c0.2-0.6,2.4-10.6,4.9-22.1c2.5-11.4,4.6-20.7,4.7-20.7C128.6,84.1,130.6,93.7,133,105.5z"/>
 <path fill="#1b2031" d="M56.8,119.6c0.2,0.9,1.4,5.4,2.7,9.9c2.3,8.1,2.4,8.2,4.5,8.4l2.1,0.2l1.4-7.2c0.7-3.9,1.6-6.9,1.8-6.7c0.3,0.4,1.1,3.6,1.8,7.2l1.3,6.7l2.1-0.2c2.2-0.2,2.3-0.4,4.5-8.4c1.3-4.5,2.5-8.9,2.8-9.9c0.4-1.4,0.1-1.6-1.8-1.6c-1.7,0-2.2,0.4-2.6,1.9c-0.2,1.1-1,4.2-1.7,7l-1.2,5l-0.9-4.3c-0.5-2.4-1.1-5.4-1.4-6.8c-0.4-2.1-0.8-2.5-2.7-2.7c-2.5-0.3-2.5-0.3-3.9,7c-1.2,6.7-1.7,7.1-2.7,2.4c-2-9.4-2.1-9.5-4.4-9.5C56.7,118,56.5,118.2,56.8,119.6z"/>
 <path fill="#1b2031" d="M183.8,128v10h7.9h7.9v-1.8c0-1.8-0.1-1.8-5.7-1.8h-5.7v-2.5v-2.5h5c4.9,0,5-0.1,5-1.8c0-1.6-0.2-1.7-4.8-1.9c-4.7-0.2-4.9-0.3-5.1-2.1l-0.2-1.9l5.6-0.2c5.1-0.2,5.6-0.4,5.8-1.9c0.2-1.6,0.1-1.6-7.7-1.6h-7.9L183.8,128L183.8,128z"/></g></g></g>

</svg>


 
